<svg width="81" height="100" viewBox="0 0 81 100" fill="none" xmlns="http://www.w3.org/2000/svg">
<path d="M40.042 -4.74975e-06C34.7229 -0.249475 29.4104 0.614402 24.4444 2.53633C19.4784 4.45825 14.9685 7.39588 11.2032 11.1612C7.43789 14.9264 4.50026 19.4364 2.57834 24.4024C0.65641 29.3684 -0.207468 34.6809 0.0420027 40C0.0420027 52.6 10.042 65 15.042 70C20.042 75 40.042 100 40.042 100C40.042 100 60.042 75 65.042 70C70.042 65 80.042 52.6 80.042 40C80.2915 34.6809 79.4276 29.3684 77.5057 24.4024C75.5838 19.4364 72.6461 14.9264 68.8809 11.1612C65.1156 7.39588 60.6056 4.45825 55.6396 2.53633C50.6736 0.614402 45.3611 -0.249475 40.042 -4.74975e-06ZM40.042 56.25C36.8281 56.25 33.6863 55.2969 31.014 53.5114C28.3417 51.7258 26.2589 49.1879 25.029 46.2186C23.799 43.2493 23.4772 39.982 24.1042 36.8298C24.7313 33.6776 26.2789 30.7821 28.5515 28.5095C30.8241 26.2369 33.7196 24.6892 36.8718 24.0622C40.024 23.4352 43.2913 23.757 46.2606 24.9869C49.2299 26.2169 51.7678 28.2997 53.5534 30.972C55.339 33.6443 56.292 36.786 56.292 40C56.292 42.134 55.8717 44.2471 55.0551 46.2186C54.2384 48.1901 53.0415 49.9815 51.5325 51.4905C50.0236 52.9994 48.2322 54.1964 46.2606 55.013C44.2891 55.8297 42.176 56.25 40.042 56.25Z" fill="white"/>
</svg>
