<svg aria-hidden="true" style="position: absolute; width: 0; height: 0; overflow: hidden;" version="1.1" xmlns="http://www.w3.org/2000/svg" xmlns:xlink="http://www.w3.org/1999/xlink">
<defs>
<symbol id="icon-attachment-2" viewBox="0 0 32 32">
<path d="M28.1 18.9l-15-15c-2.5-2.6-6.6-2.6-9.2-0.1s-2.6 6.7 0 9.2l0.1 0.1 2.8 2.9 1.4-1.4-2.9-2.9c-1.7-1.7-1.7-4.6 0-6.3s4.6-1.8 6.3-0.1l15 15c1.8 1.7 1.8 4.6 0.1 6.3-1.7 1.8-4.6 1.8-6.3 0.1l-7.5-7.5c-1-1-0.9-2.6 0-3.5 0.479-0.434 1.103-0.675 1.75-0.675s1.271 0.241 1.75 0.675l4.1 4.1 1.4-1.4-4.2-4.2c-0.426-0.403-0.927-0.717-1.475-0.925s-1.131-0.306-1.717-0.287c-0.586 0.019-1.162 0.153-1.695 0.395s-1.014 0.588-1.413 1.017c-1.6 1.7-1.6 4.4 0 6.2l7.5 7.5c2.5 2.6 6.6 2.6 9.2 0.1s2.6-6.7 0-9.3c0 0.1 0 0 0 0z"></path>
</symbol>
<symbol id="icon-eye-off" viewBox="0 0 32 32">
<path stroke-linejoin="round" stroke-linecap="round" stroke-miterlimit="4" stroke-width="1.3333" d="M18.827 18.827c-0.366 0.393-0.808 0.708-1.298 0.927s-1.020 0.336-1.557 0.346-1.071-0.089-1.569-0.291c-0.498-0.201-0.951-0.501-1.33-0.88s-0.679-0.832-0.88-1.33c-0.201-0.498-0.3-1.032-0.29-1.569s0.127-1.067 0.346-1.557c0.219-0.491 0.534-0.932 0.927-1.299M23.92 23.92c-2.279 1.737-5.055 2.7-7.92 2.747-9.333 0-14.667-10.667-14.667-10.667 1.659-3.091 3.959-5.791 6.747-7.92l15.84 15.84zM13.2 5.653c0.918-0.215 1.857-0.322 2.8-0.32 9.333 0 14.667 10.667 14.667 10.667-0.809 1.514-1.775 2.94-2.88 4.253l-14.587-14.6z"></path>
<path stroke-linejoin="round" stroke-linecap="round" stroke-miterlimit="4" stroke-width="1.3333" d="M1.333 1.333l29.333 29.333"></path>
</symbol>
<symbol id="icon-log-out-01" viewBox="0 0 32 32">
<path stroke-linejoin="round" stroke-linecap="round" stroke-miterlimit="4" stroke-width="3.5556" d="M21.333 22.667l6.667-6.667M28 16l-6.667-6.667M28 16h-16M12 4h-1.6c-2.24 0-3.36 0-4.216 0.436-0.753 0.383-1.365 0.995-1.748 1.748-0.436 0.856-0.436 1.976-0.436 4.216v11.2c0 2.24 0 3.36 0.436 4.216 0.383 0.753 0.995 1.364 1.748 1.748 0.856 0.436 1.976 0.436 4.216 0.436h1.6"></path>
</symbol>
<symbol id="icon-ooui_map-pin" viewBox="0 0 32 32">
<path d="M16-0c-1.702-0.080-3.402 0.197-4.991 0.812s-3.032 1.555-4.237 2.76c-1.205 1.205-2.145 2.648-2.76 4.237s-0.891 3.289-0.812 4.991c0 4.032 3.2 8 4.8 9.6s8 9.6 8 9.6c0 0 6.4-8 8-9.6s4.8-5.568 4.8-9.6c0.080-1.702-0.197-3.402-0.812-4.991s-1.555-3.032-2.76-4.237c-1.205-1.205-2.648-2.145-4.237-2.76s-3.289-0.891-4.991-0.812zM16 18c-1.028 0-2.034-0.305-2.889-0.876s-1.522-1.384-1.915-2.334-0.497-1.996-0.296-3.004c0.201-1.009 0.696-1.935 1.423-2.662s1.654-1.222 2.663-1.423c1.009-0.201 2.054-0.098 3.004 0.296s1.762 1.060 2.334 1.915c0.571 0.855 0.876 1.861 0.876 2.889 0 0.683-0.135 1.359-0.396 1.99s-0.644 1.204-1.127 1.687c-0.483 0.483-1.056 0.866-1.687 1.127s-1.307 0.396-1.99 0.396z"></path>
</symbol>
<symbol id="icon-pencil-1" viewBox="0 0 32 32">
<path stroke-linejoin="round" stroke-linecap="round" stroke-miterlimit="4" stroke-width="2.6" stroke="currentColor" fill="currentColor" d="M3.333 28.667l7.399-2.846c0.473-0.182 0.71-0.273 0.931-0.392 0.197-0.106 0.384-0.227 0.56-0.364 0.199-0.154 0.378-0.333 0.736-0.692l15.040-15.040c1.473-1.473 1.473-3.861 0-5.333s-3.861-1.473-5.333 0l-15.040 15.040c-0.359 0.359-0.538 0.538-0.692 0.736-0.137 0.176-0.259 0.364-0.364 0.56-0.119 0.221-0.21 0.458-0.392 0.931l-2.846 7.399zM3.333 28.667l2.744-7.135c0.196-0.511 0.295-0.766 0.463-0.883 0.147-0.102 0.329-0.141 0.505-0.107 0.201 0.038 0.395 0.232 0.782 0.619l3.012 3.012c0.387 0.387 0.58 0.58 0.619 0.782 0.034 0.176-0.005 0.358-0.107 0.505-0.117 0.168-0.372 0.267-0.883 0.463l-7.135 2.744z"></path>
</symbol>
<symbol id="icon-trash" viewBox="0 0 32 32">
<path stroke-linejoin="round" stroke-linecap="round" stroke-miterlimit="4" stroke-width="2.6" d="M12 4h8"></path>
<path stroke-linejoin="round" stroke-linecap="round" stroke-miterlimit="4" stroke-width="2.6" d="M4 8h24"></path>
<path stroke-linejoin="round" stroke-linecap="round" stroke-miterlimit="4" stroke-width="2.6" d="M6.667 8l0.801 12.018c0.149 2.231 0.223 3.347 0.588 4.243 0.662 1.627 2.004 2.883 3.672 3.435 0.919 0.304 2.037 0.304 4.273 0.304s3.354 0 4.273-0.304c1.668-0.552 3.010-1.808 3.672-3.435 0.365-0.896 0.439-2.012 0.588-4.243l0.801-12.018"></path>
</symbol>
</defs>
</svg>
